<?xml version="1.0" encoding="UTF-8" standalone="no"?>
<svg width="63px" height="64px" viewBox="0 0 63 64" version="1.1" xmlns="http://www.w3.org/2000/svg" xmlns:xlink="http://www.w3.org/1999/xlink" xmlns:sketch="http://www.bohemiancoding.com/sketch/ns">
    <!-- Generator: Sketch 3.4.4 (17249) - http://www.bohemiancoding.com/sketch -->
    <title>Icon 64x64</title>
    <desc>Created with Sketch.</desc>
    <defs></defs>
    <g id="Page-1" stroke="none" stroke-width="1" fill="none" fill-rule="evenodd" sketch:type="MSPage">
        <g id="Sample_01" sketch:type="MSArtboardGroup" transform="translate(-1073.000000, -2839.000000)" fill="#DDDDDD">
            <path d="M1134,2839 L1075,2839 C1073.896,2839 1073,2839.895 1073,2841 L1073,2883.5 C1073,2884.604 1073.896,2885.5 1075,2885.5 L1094.666,2885.5 L1094.666,2891.5 L1089.011,2891.5 C1085.84,2891.5 1083.261,2894.079 1083.261,2897.25 C1083.261,2900.421 1085.84,2903 1089.011,2903 L1119.989,2903 C1123.16,2903 1125.739,2900.421 1125.739,2897.25 C1125.739,2894.079 1123.16,2891.5 1119.989,2891.5 L1114.057,2891.5 L1114.057,2885.5 L1134,2885.5 C1135.105,2885.5 1136,2884.604 1136,2883.5 L1136,2841 C1136,2839.895 1135.105,2839 1134,2839 L1134,2839 Z M1077,2843 L1132,2843 L1132,2874 L1077,2874 L1077,2843 Z M1121.739,2897.25 C1121.739,2898.215 1120.954,2899 1119.989,2899 L1089.011,2899 C1088.046,2899 1087.261,2898.215 1087.261,2897.25 C1087.261,2896.285 1088.046,2895.5 1089.011,2895.5 L1119.989,2895.5 C1120.954,2895.5 1121.739,2896.285 1121.739,2897.25 L1121.739,2897.25 Z M1098.666,2885.5 L1110.057,2885.5 L1110.057,2891.5 L1098.666,2891.5 L1098.666,2885.5 Z M1077,2878 L1132,2878 L1132,2881.5 L1077,2881.5 L1077,2878 Z M1092.388,2865.253 C1092.767,2865.583 1093.234,2865.745 1093.7,2865.745 C1094.259,2865.745 1094.814,2865.513 1095.209,2865.058 C1095.935,2864.225 1095.848,2862.963 1095.015,2862.237 L1091.61,2859.271 L1095.015,2856.306 C1095.848,2855.582 1095.935,2854.318 1095.209,2853.485 C1094.483,2852.652 1093.221,2852.565 1092.388,2853.291 L1087.252,2857.763 C1086.815,2858.142 1086.565,2858.693 1086.565,2859.271 C1086.565,2859.849 1086.815,2860.399 1087.252,2860.779 L1092.388,2865.253 Z M1114.23,2865.058 C1114.625,2865.513 1115.18,2865.745 1115.738,2865.745 C1116.204,2865.745 1116.672,2865.583 1117.051,2865.253 L1122.187,2860.779 C1122.623,2860.399 1122.873,2859.849 1122.873,2859.271 C1122.873,2858.693 1122.623,2858.142 1122.187,2857.763 L1117.051,2853.291 C1116.217,2852.564 1114.954,2852.651 1114.23,2853.485 C1113.504,2854.318 1113.591,2855.582 1114.424,2856.306 L1117.828,2859.271 L1114.424,2862.237 C1113.591,2862.963 1113.504,2864.225 1114.23,2865.058 Z M1103.065,2869.345 C1103.191,2869.37 1103.317,2869.381 1103.44,2869.381 C1104.383,2869.381 1105.222,2868.713 1105.403,2867.754 L1108.39,2852.025 C1108.596,2850.94 1107.883,2849.893 1106.798,2849.687 C1105.705,2849.475 1104.665,2850.195 1104.46,2851.279 L1101.474,2867.008 C1101.268,2868.092 1101.981,2869.139 1103.065,2869.345 Z" id="Icon-64x64" sketch:type="MSShapeGroup"></path>
        </g>
    </g>
</svg>