<?xml version="1.0" encoding="UTF-8" standalone="no"?>
<svg width="61px" height="64px" viewBox="0 0 61 64" version="1.1" xmlns="http://www.w3.org/2000/svg" xmlns:xlink="http://www.w3.org/1999/xlink" xmlns:sketch="http://www.bohemiancoding.com/sketch/ns">
    <!-- Generator: Sketch 3.4.4 (17249) - http://www.bohemiancoding.com/sketch -->
    <title>Icon 64x64</title>
    <desc>Created with Sketch.</desc>
    <defs></defs>
    <g id="Page-1" stroke="none" stroke-width="1" fill="none" fill-rule="evenodd" sketch:type="MSPage">
        <g id="Sample_01" sketch:type="MSArtboardGroup" transform="translate(-268.000000, -2839.000000)" fill="#DDDDDD">
            <path d="M327,2862.478 L319.087,2862.478 L319.087,2850.314 C319.087,2849.803 318.892,2849.312 318.542,2848.941 L309.744,2839.627 C309.366,2839.227 308.839,2839 308.29,2839 L279.913,2839 C278.809,2839 277.914,2839.896 277.914,2841 L277.914,2870.304 L270,2870.304 C268.896,2870.304 268,2871.199 268,2872.304 L268,2901 C268,2902.105 268.896,2903 270,2903 L317.087,2903 C318.192,2903 319.087,2902.105 319.087,2901 L319.087,2889.956 L327,2889.956 C328.105,2889.956 329,2889.061 329,2887.956 L329,2864.478 C329,2863.373 328.105,2862.478 327,2862.478 L327,2862.478 Z M323.39,2866.478 L313.112,2875.573 L302.834,2866.478 L323.39,2866.478 L323.39,2866.478 Z M315.087,2851.108 L315.087,2852.043 L306.697,2852.043 L306.697,2843 L307.427,2843 L315.087,2851.108 L315.087,2851.108 Z M279.913,2899 L272,2899 L272,2874.304 L285.348,2874.304 L285.348,2899 L279.913,2899 L279.913,2899 Z M315.087,2899 L289.348,2899 L289.348,2872.304 C289.348,2871.199 288.453,2870.304 287.348,2870.304 L281.914,2870.304 L281.914,2843 L302.697,2843 L302.697,2854.043 C302.697,2855.148 303.592,2856.043 304.697,2856.043 L315.087,2856.043 L315.087,2862.478 L297.261,2862.478 C296.157,2862.478 295.261,2863.373 295.261,2864.478 L295.261,2887.956 C295.261,2889.061 296.157,2889.956 297.261,2889.956 L315.087,2889.956 L315.087,2899 L315.087,2899 Z M299.261,2885.956 L299.261,2868.658 L311.787,2879.742 C312.165,2880.077 312.638,2880.244 313.112,2880.244 C313.585,2880.244 314.059,2880.077 314.437,2879.742 L325,2870.394 L325,2885.956 L299.261,2885.956 L299.261,2885.956 Z" id="Icon-64x64" sketch:type="MSShapeGroup"></path>
        </g>
    </g>
</svg>