<?xml version="1.0" encoding="UTF-8" standalone="no"?>
<svg width="64px" height="63px" viewBox="0 0 64 63" version="1.1" xmlns="http://www.w3.org/2000/svg" xmlns:xlink="http://www.w3.org/1999/xlink" xmlns:sketch="http://www.bohemiancoding.com/sketch/ns">
    <!-- Generator: Sketch 3.4.4 (17249) - http://www.bohemiancoding.com/sketch -->
    <title>Icon 64x64</title>
    <desc>Created with Sketch.</desc>
    <defs></defs>
    <g id="Page-1" stroke="none" stroke-width="1" fill="none" fill-rule="evenodd" sketch:type="MSPage">
        <g id="Sample_01" sketch:type="MSArtboardGroup" transform="translate(-675.000000, -2839.000000)" fill="#DDDDDD">
            <path d="M737.237564,2887.23037 L719.446564,2869.40437 C723.525564,2865.51237 727.655564,2861.68237 731.840564,2857.94137 C731.867564,2857.91537 731.895564,2857.89037 731.921564,2857.86337 C732.521564,2857.26337 732.979564,2856.55637 733.290564,2855.74137 L737.188564,2845.15737 C737.674564,2843.83637 737.493564,2842.42037 736.693564,2841.27237 C735.606564,2839.71237 733.543564,2839.04837 731.747564,2839.71437 L721.146564,2843.63437 C720.371564,2843.93437 719.649564,2844.40437 719.057564,2844.99837 C719.032564,2845.02337 719.009564,2845.04737 718.986564,2845.07237 L717.478564,2846.74937 C714.229564,2850.36637 710.913564,2853.94437 707.548564,2857.48437 L695.079564,2844.99037 C694.484564,2844.39437 693.784564,2843.93737 692.996564,2843.63237 L681.507564,2839.19537 C681.429564,2839.16637 681.350564,2839.14137 681.269564,2839.12037 C679.881564,2838.77737 678.449564,2839.17737 677.440564,2840.19337 C676.432564,2841.21237 676.042564,2842.64937 676.400564,2844.03937 C676.419564,2844.11237 676.441564,2844.18437 676.469564,2844.25437 L680.866564,2855.76737 C681.168564,2856.56137 681.626564,2857.26837 682.225564,2857.86637 L694.789564,2870.45537 C689.930564,2875.22537 684.985564,2879.89737 679.970564,2884.44737 L676.823564,2887.31337 C674.426564,2889.71437 674.387564,2893.58337 676.736564,2895.93837 L681.062564,2900.27237 C682.174564,2901.38737 683.674564,2902.00137 685.285564,2902.00137 C686.927564,2902.00137 688.529564,2901.34037 689.680564,2900.18737 C689.704564,2900.16337 689.727564,2900.13937 689.750564,2900.11337 L691.086564,2898.63337 C696.086564,2893.05737 701.233564,2887.57037 706.497564,2882.18737 L724.379564,2900.10237 C725.518564,2901.24437 727.033564,2901.87337 728.644564,2901.87337 L728.645564,2901.87337 C730.257564,2901.87337 731.772564,2901.24437 732.911564,2900.10337 L737.238564,2895.76837 C739.587564,2893.41337 739.587564,2889.58337 737.237564,2887.23037 L737.237564,2887.23037 Z M733.226564,2843.44637 C733.301564,2843.44637 733.373564,2843.50437 733.413564,2843.56137 C733.468564,2843.63937 733.461564,2843.70337 733.434564,2843.77437 L731.582564,2848.80537 L728.114564,2845.33037 L733.226564,2843.44637 L733.226564,2843.44637 Z M721.919564,2847.79337 C722.112564,2847.60737 722.340564,2847.46137 722.559564,2847.37637 L723.983564,2846.85237 L730.059564,2852.94037 L729.544564,2854.33837 C729.450564,2854.58737 729.309564,2854.81037 729.126564,2855.00237 C728.836564,2855.26037 728.552564,2855.52537 728.263564,2855.78437 L721.145564,2848.65237 L721.919564,2847.79337 L721.919564,2847.79337 Z M685.053564,2855.03937 C684.857564,2854.84337 684.701564,2854.60237 684.601564,2854.34037 L681.534564,2846.30737 L683.576564,2844.28337 L691.555564,2847.36337 C691.817564,2847.46537 692.050564,2847.61637 692.249564,2847.81537 L692.299564,2847.86637 L685.097564,2855.08237 L685.053564,2855.03937 L685.053564,2855.03937 Z M687.922564,2857.91337 L695.125564,2850.69737 L704.781564,2860.37337 C702.421564,2862.81837 700.035564,2865.23937 697.628564,2867.63837 L687.922564,2857.91337 L687.922564,2857.91337 Z M688.113564,2895.95837 L686.821564,2897.39037 C686.036564,2898.14637 684.630564,2898.18437 683.893564,2897.44637 L679.567564,2893.11337 C678.799564,2892.34437 678.839564,2890.95337 679.584564,2890.20637 L682.659564,2887.40937 C683.060564,2887.04637 683.456564,2886.67437 683.856564,2886.30937 L690.674564,2893.14137 C689.820564,2894.08037 688.959564,2895.01437 688.113564,2895.95837 L688.113564,2895.95837 Z M693.374564,2890.18437 L686.802564,2883.60037 C697.779564,2873.42037 708.395564,2862.68837 718.455564,2851.61837 L725.297564,2858.47437 C714.237564,2868.56237 703.534564,2879.18837 693.374564,2890.18437 L693.374564,2890.18437 Z M721.563564,2891.62037 L709.308564,2879.34137 C711.705564,2876.92837 714.121564,2874.53337 716.563564,2872.16637 C716.580564,2872.18437 716.591564,2872.20537 716.609564,2872.22337 L728.766564,2884.40437 L721.563564,2891.62037 L721.563564,2891.62037 Z M734.408564,2892.94237 L730.080564,2897.27637 C729.697564,2897.66137 729.187564,2897.87337 728.645564,2897.87337 C728.103564,2897.87337 727.594564,2897.66137 727.210564,2897.27637 L724.389564,2894.45037 L731.591564,2887.23437 L734.407564,2890.05637 C735.202564,2890.85237 735.202564,2892.14737 734.408564,2892.94237 Z M710.681564,2863.41137 L702.553564,2871.40637 C701.766564,2872.18137 701.755564,2873.44737 702.529564,2874.23437 C702.921564,2874.63337 703.437564,2874.83237 703.955564,2874.83237 C704.461564,2874.83237 704.967564,2874.64137 705.357564,2874.25837 L713.485564,2866.26337 C714.272564,2865.48837 714.283564,2864.22237 713.509564,2863.43537 C712.733564,2862.64737 711.468564,2862.63737 710.681564,2863.41137 Z" id="Icon-64x64" sketch:type="MSShapeGroup"></path>
        </g>
    </g>
</svg>