<?xml version="1.0" encoding="UTF-8" standalone="no"?>
<svg width="143px" height="35px" viewBox="0 0 143 35" version="1.1" xmlns="http://www.w3.org/2000/svg" xmlns:xlink="http://www.w3.org/1999/xlink" xmlns:sketch="http://www.bohemiancoding.com/sketch/ns">
    <!-- Generator: Sketch 3.4.4 (17249) - http://www.bohemiancoding.com/sketch -->
    <title>Dribbble Logo</title>
    <desc>Created with Sketch.</desc>
    <defs></defs>
    <g id="Page-1" stroke="none" stroke-width="1" fill="none" fill-rule="evenodd" sketch:type="MSPage">
        <g id="Sample_01" sketch:type="MSArtboardGroup" transform="translate(-910.000000, -3483.000000)" fill="#DDDDDD">
            <path d="M1052.59572,3510.58333 C1046.62757,3520.71683 1037.17553,3517.77637 1034.33705,3515.47431 C1033.12926,3516.29506 1031.01051,3518.09412 1028.18576,3517.88656 C1022.16999,3517.4444 1020.01568,3508.83486 1020.01568,3508.83486 C1020.05887,3508.86925 1018.22383,3509.46899 1017.23199,3509.45844 C1017.21917,3511.98318 1015.03983,3518.01418 1009.15852,3517.93731 C1002.5587,3517.8511 1001.21691,3508.00403 1001.21691,3508.00403 C1001.21691,3508.00403 1000.56021,3508.91739 998.062819,3509.82724 C998.18842,3507.88757 998.096699,3517.64187 990.186525,3517.78538 C983.933137,3517.89879 982.245065,3507.85196 982.245065,3507.85196 C982.245065,3507.85196 981.160127,3508.98097 979.057707,3509.37224 C979.191397,3507.40108 978.974226,3517.8184 971.062831,3517.78538 C965.716585,3517.76292 963.889787,3511.59665 964.032023,3510.74076 C964.213177,3509.64995 962.225065,3517.93883 957.031891,3517.80969 C954.888875,3517.74641 953.291457,3516.19296 952.288778,3514.12078 C950.946684,3515.6591 948.998099,3517.80969 946.812046,3517.80969 C942.888474,3517.80969 941.159044,3514.5229 941.451759,3505.13602 C941.476635,3504.02259 941.396665,3503.58455 940.291429,3503.41842 C939.628318,3503.30746 938.948572,3503.09761 938.230215,3502.9868 C937.999766,3503.75665 936.045535,3517.55918 929.326671,3517.82115 C927.072552,3517.90888 925.840035,3515.95377 924.827742,3514.50196 C923.27626,3516.55779 921.228018,3517.88656 918.310177,3517.88656 C913.367597,3517.88656 910,3513.88495 910,3508.94903 C910,3504.01296 913.367597,3500.0115 918.310177,3500.0115 C919.184049,3500.0115 919.429301,3500.13713 920.227934,3500.37036 C918.585952,3485.39969 922.463282,3483.05988 925.855297,3483.05988 C929.111485,3483.05988 934.674749,3490.62921 926.84714,3509.82846 C928.585116,3515.55517 932.331503,3515.23145 934.132356,3503.44287 C934.498327,3501.04621 933.518693,3497.81261 935.042856,3497.36143 C937.82838,3496.53656 938.124147,3499.01132 939.430377,3499.42353 C940.81154,3499.85942 941.617651,3499.81693 942.943873,3500.09403 C945.209439,3500.53711 946.093536,3501.75615 945.817456,3504.47117 C945.485824,3507.90621 944.906041,3512.90556 946.674387,3513.51508 C947.949331,3513.95755 950.277316,3511.30977 950.685713,3509.86086 C951.09411,3508.41196 951.179269,3507.91615 951.215439,3506.85346 C951.270838,3504.58183 951.339972,3502.91711 951.726851,3501.19951 C951.89259,3500.53466 952.081222,3500.09434 952.832086,3500.06423 C953.449718,3500.04864 954.57983,3499.86233 955.077202,3500.25008 C955.740465,3500.74879 955.65729,3501.25514 955.581136,3502.58713 C954.810126,3521.5822 960.744702,3512.09995 962.51427,3504.50709 C961.884276,3495.92169 962.316481,3483.21715 967.68913,3483.00394 C970.48259,3482.89329 971.717701,3485.13466 971.853681,3486.80779 C972.237965,3491.53324 970.085181,3499.36086 967.254636,3504.62508 C965.636462,3515.3661 974.328939,3517.48964 975.718649,3508.91632 C973.444689,3507.83331 970.986829,3503.45021 972.986693,3501.31445 C974.109021,3500.11573 978.780253,3501.83792 978.857171,3505.59377 C981.148528,3504.97997 981.454216,3503.68451 981.486112,3503.8991 C980.856271,3495.3137 981.440328,3483.21715 986.812671,3483.00394 C989.606436,3482.89329 990.841395,3485.13466 990.977527,3486.80779 C991.361658,3491.53324 989.209028,3499.36086 986.378177,3504.62508 C984.760156,3515.3661 993.45248,3517.48964 994.842495,3508.91632 C993.158544,3508.59093 989.6043,3503.92921 991.654984,3501.31445 C992.75091,3499.9172 997.405202,3502.82296 997.926381,3505.71803 C1000.12785,3505.09414 1000.42682,3503.83949 1000.45795,3504.05102 C999.828113,3495.46578 1000.41217,3483.36907 1005.78451,3483.15602 C1008.57828,3483.04521 1009.81324,3485.28689 1009.94937,3486.95986 C1010.33365,3491.68517 1008.18087,3499.51294 1005.35032,3504.77715 C1003.73215,3515.51818 1012.42432,3517.64156 1013.81434,3509.06824 C1011.50055,3508.68217 1008.21216,3503.76001 1010.8588,3501.24185 C1011.91642,3500.23556 1015.95659,3502.84741 1016.90234,3505.827 C1018.21636,3505.77626 1019.03452,3505.32279 1019.20988,3505.27678 C1017.11188,3495.19785 1018.67359,3483.10482 1024.45311,3483.00394 C1027.57668,3482.94938 1030.6308,3484.69525 1029.29008,3494.28388 C1028.01102,3503.43294 1023.41136,3507.27224 1023.42204,3507.33093 C1023.68988,3508.42693 1026.04992,3517.59953 1031.99304,3512.75975 C1031.68537,3512.06189 1031.37724,3511.34936 1031.20494,3510.48597 C1030.21996,3505.45637 1032.15481,3499.77582 1037.41376,3498.85757 C1040.42668,3498.33165 1043.26486,3499.80043 1043.71355,3503.11259 C1044.45235,3508.53178 1039.56563,3512.45667 1037.70755,3513.30798 C1036.87534,3512.83434 1045.25175,3518.21471 1050.22272,3507.43287 C1050.51101,3506.81724 1050.85882,3506.86951 1051.30888,3507.1868 C1051.62677,3507.41102 1053.4377,3509.12907 1052.59572,3510.58333 L1052.59572,3510.58333 Z M921.905475,3507.61735 C921.652592,3506.85988 921.133397,3505.1915 920.949801,3504.46827 C919.939187,3503.58776 919.217624,3503.44486 917.919789,3503.44486 C915.036133,3503.44486 913.338905,3506.1151 913.338905,3508.99412 C913.338905,3511.87344 915.187985,3514.54368 918.07164,3514.54368 C920.570707,3514.54368 922.472744,3512.84198 923.052832,3510.43309 C922.646725,3509.4939 922.243822,3508.63097 921.905475,3507.61735 L921.905475,3507.61735 Z M925.784636,3487.02268 C923.75837,3487.02268 923.070994,3491.86338 923.204379,3495.99307 C923.322503,3499.64407 924.341053,3502.85842 924.869558,3504.29831 C925.003707,3504.47912 924.978983,3504.36159 925.09848,3504.55309 C928.616708,3496.83322 927.157711,3487.02268 925.784636,3487.02268 L925.784636,3487.02268 Z M967.978182,3487.1749 C965.359161,3486.87397 965.376101,3497.79931 965.701476,3500.25008 C967.061273,3498.07091 969.424207,3487.76135 967.978182,3487.1749 L967.978182,3487.1749 Z M987.101876,3487.1749 C984.482855,3486.87397 984.499642,3497.79931 984.82517,3500.25008 C986.184967,3498.07091 988.547748,3487.76135 987.101876,3487.1749 L987.101876,3487.1749 Z M1006.07372,3487.32683 C1003.4547,3487.02604 1003.47164,3497.95139 1003.79716,3500.40215 C1005.15681,3498.22298 1007.51974,3487.91342 1006.07372,3487.32683 L1006.07372,3487.32683 Z M1024.74216,3486.53528 C1020.6617,3487.35571 1021.61203,3500.98004 1022.23165,3503.36936 C1027.03779,3496.75848 1027.13669,3486.28661 1024.74216,3486.53528 L1024.74216,3486.53528 Z M1040.03355,3503.56071 C1039.8266,3502.69228 1038.78913,3502.22766 1038.07291,3502.34228 C1036.02451,3502.62244 1034.03731,3505.1779 1034.80649,3509.06824 C1034.97757,3509.93453 1035.40612,3510.73204 1035.39925,3510.7056 C1039.98425,3507.62514 1040.37388,3505.19746 1040.03355,3503.56071 L1040.03355,3503.56071 Z M953.63545,3497.05728 C952.000794,3497.05728 950.67564,3495.72988 950.67564,3494.09237 C950.67564,3492.45517 952.000794,3491.12776 953.63545,3491.12776 C955.269954,3491.12776 956.595108,3492.45517 956.595108,3494.09237 C956.595108,3495.72988 955.269954,3497.05728 953.63545,3497.05728 L953.63545,3497.05728 Z" id="Dribbble-Logo" sketch:type="MSShapeGroup"></path>
        </g>
    </g>
</svg>