<?xml version="1.0" encoding="UTF-8" standalone="no"?>
<svg width="54px" height="54px" viewBox="0 0 54 54" version="1.1" xmlns="http://www.w3.org/2000/svg" xmlns:xlink="http://www.w3.org/1999/xlink" xmlns:sketch="http://www.bohemiancoding.com/sketch/ns">
    <!-- Generator: Sketch 3.4.4 (17249) - http://www.bohemiancoding.com/sketch -->
    <title>GE Logo</title>
    <desc>Created with Sketch.</desc>
    <defs></defs>
    <g id="Page-1" stroke="none" stroke-width="1" fill="none" fill-rule="evenodd" sketch:type="MSPage">
        <g id="Sample_01" sketch:type="MSArtboardGroup" transform="translate(-804.000000, -3473.000000)" fill="#DDDDDD">
            <path d="M826.078041,3487.53753 C825.095448,3488.2103 824.493498,3489.28141 823.971219,3490.32597 C823.41353,3491.50332 822.97092,3492.76033 822.917807,3494.0793 C823.289599,3493.91111 823.652539,3493.68981 823.953514,3493.41539 C825.183969,3492.33542 826.263937,3491.06071 826.989818,3489.58239 C827.246531,3489.05126 827.458984,3488.44931 827.317349,3487.84736 C827.131453,3487.36049 826.47639,3487.23656 826.078041,3487.53753 L826.078041,3487.53753 Z M838.834056,3488.05096 C837.683271,3489.38764 837.045913,3491.16693 837.072469,3492.93737 C838.36489,3491.86626 839.568789,3490.60924 840.374339,3489.12207 C840.604496,3488.64406 840.914323,3487.86506 840.321225,3487.51983 C839.790094,3487.23656 839.188144,3487.64376 838.834056,3488.05096 L838.834056,3488.05096 Z M821.368673,3505.18881 C820.235592,3506.20681 819.129067,3507.39301 818.721866,3508.88903 C818.518266,3509.70343 818.474005,3510.72143 819.155624,3511.31453 C819.863799,3511.96959 820.943767,3511.77485 821.767022,3511.46502 C823.360417,3510.85422 824.325306,3509.31393 824.971517,3507.80906 C825.723953,3505.9501 826.19312,3503.96721 826.387868,3501.97546 C824.58202,3502.80757 822.891251,3503.90524 821.368673,3505.18881 L821.368673,3505.18881 Z M825.1043,3485.90873 C826.095746,3485.38645 827.36161,3485.23596 828.37076,3485.7848 C829.185162,3486.24511 829.503841,3487.25426 829.424172,3488.13948 C829.273684,3489.89222 828.423873,3491.52102 827.352758,3492.89311 C826.201972,3494.29176 824.776768,3495.52221 823.068295,3496.18613 C823.201077,3496.73496 823.617131,3497.31036 824.227932,3497.31036 C825.3079,3497.34576 826.246233,3496.66415 827.025226,3495.99138 C827.582915,3495.56647 827.609471,3494.82289 827.875037,3494.22094 C828.255682,3493.29146 828.769109,3492.29116 829.707442,3491.81314 C830.150052,3491.58298 830.831671,3491.53872 831.132645,3492.00789 C831.469029,3492.64525 831.168054,3493.37113 830.849375,3493.94652 C830.406765,3494.78748 829.716294,3495.43369 829.167458,3496.18613 C828.963857,3496.88545 828.919596,3497.62018 828.910744,3498.34606 C829.672033,3498.00968 830.353652,3497.53166 831.079532,3497.10676 C832.327692,3496.30121 833.628965,3495.54877 834.788603,3494.61044 C834.921386,3494.15897 834.744342,3493.66325 834.762046,3493.19408 C834.691228,3490.91907 835.479074,3488.59094 837.028208,3486.90903 C837.993098,3485.89102 839.444858,3485.17399 840.861209,3485.52808 C841.71102,3485.68742 842.383787,3486.37789 842.622796,3487.1923 C842.923771,3488.42275 842.507718,3489.70632 841.861508,3490.75088 C840.746131,3492.49476 839.126179,3493.82259 837.488523,3495.04419 C837.709827,3495.59303 838.019654,3496.21268 838.603899,3496.40743 C839.45371,3496.24809 840.312373,3496.01794 841.171036,3496.19498 C841.746429,3496.31006 842.445753,3496.4871 842.729023,3497.06249 C842.985737,3497.62018 842.490014,3498.19558 841.976586,3498.37262 C840.887766,3498.72671 839.728128,3498.52311 838.621604,3498.44344 C837.293774,3498.76212 836.142989,3499.62963 835.319734,3500.70075 C834.036166,3502.38266 833.637817,3504.61342 833.912235,3506.68483 C834.186653,3508.40216 835.045316,3510.12834 836.559042,3511.05782 C838.267516,3512.14664 840.719574,3511.91648 842.135926,3510.44702 C843.463755,3509.06607 843.888661,3506.87958 843.145076,3505.10914 C842.826397,3504.339 842.15363,3503.67509 841.303819,3503.5423 C840.312373,3503.321 839.135031,3503.95836 838.993396,3505.01177 C838.851761,3505.82617 839.418301,3506.49894 839.89632,3507.07433 C840.268112,3507.45497 840.312373,3508.16315 839.852059,3508.49953 C839.143883,3508.9864 838.152437,3508.64117 837.585897,3508.07463 C836.178397,3506.69368 836.222658,3504.19736 837.568192,3502.78101 C839.276666,3500.82468 842.67591,3500.78927 844.419792,3502.7102 C846.287606,3504.78161 846.517763,3508.09233 845.083707,3510.46472 C844.012591,3512.32368 842.065108,3513.66922 839.931729,3513.97019 C837.612453,3514.31543 835.098429,3513.58069 833.469625,3511.85451 C830.282835,3508.60576 830.327096,3502.89609 833.372251,3499.55881 C834.186653,3498.58507 835.266621,3497.8946 836.346589,3497.24839 C836.10758,3496.93856 835.868571,3496.62874 835.620709,3496.32776 C833.522739,3497.84149 831.327394,3499.22243 829.078936,3500.48829 C828.689439,3500.62993 828.760257,3501.09024 828.707144,3501.41778 C828.503543,3504.18851 828.273386,3507.08318 826.892443,3509.5618 C825.954111,3511.31453 824.546611,3512.92563 822.652241,3513.64266 C821.147368,3514.2092 819.332668,3514.26231 817.960577,3513.35054 C816.6416,3512.51843 816.039651,3510.87192 816.137025,3509.36705 C816.349477,3507.45497 817.438298,3505.72879 818.81924,3504.42752 C820.722462,3502.69249 823.024034,3501.48859 825.281344,3500.3024 C825.741658,3500.04568 826.246233,3499.85094 826.653434,3499.52341 C826.803921,3499.10735 826.830478,3498.65589 826.874739,3498.22213 C825.697397,3498.93031 824.21908,3499.5057 822.873546,3498.95686 C821.775874,3498.53196 821.085403,3497.47855 820.740167,3496.39858 C819.695608,3496.29235 818.651049,3495.8763 817.987134,3495.03534 C816.836348,3493.6544 816.756678,3491.54758 817.597637,3489.98074 C817.872055,3489.42305 818.500561,3489.12207 819.111363,3489.15748 C819.235293,3489.39649 819.456598,3489.6355 819.376929,3489.92762 C819.191032,3490.94563 818.836945,3491.99904 819.173328,3493.02589 C819.34152,3493.72522 819.916913,3494.2829 820.642793,3494.38028 C820.79328,3492.71607 821.120811,3491.05185 821.899805,3489.56468 C822.634537,3488.10407 823.643687,3486.69657 825.1043,3485.90873 L825.1043,3485.90873 Z M824.493498,3476.81752 C820.076252,3478.01257 815.942276,3480.61511 813.322026,3484.41271 C811.551587,3486.91788 810.533584,3489.87451 810.011305,3492.86655 C809.763443,3494.74322 809.666069,3496.77922 810.59555,3498.4877 C811.029307,3499.33751 811.781744,3499.97487 812.153536,3500.86009 C812.507624,3501.63908 812.259763,3502.69249 811.498474,3503.14395 C810.781446,3503.65738 809.772295,3503.46263 809.126085,3502.92265 C808.196605,3502.19677 807.798256,3501.00172 807.603507,3499.87749 C807.205159,3497.33691 807.718586,3494.77863 808.364796,3492.32657 C807.860221,3492.53902 807.931039,3493.23835 807.745142,3493.68096 C806.638618,3497.96542 806.64747,3502.542 807.851369,3506.79991 C809.002154,3510.87192 811.339134,3514.65181 814.702969,3517.2455 C817.243549,3519.25495 820.359522,3520.39688 823.502052,3521.00769 C825.405274,3521.33522 827.467836,3521.45915 829.247128,3520.59163 C830.132347,3520.14902 830.796262,3519.37888 831.654925,3518.90972 C832.389657,3518.53792 833.336842,3518.66185 833.903383,3519.25495 C834.558446,3519.91887 834.57615,3521.04309 834.036166,3521.76897 C833.460773,3522.55682 832.531293,3522.99943 831.610664,3523.24729 C829.583511,3523.76072 827.467836,3523.53056 825.440683,3523.15877 C824.697099,3523.04369 823.988923,3522.71616 823.236486,3522.71616 C823.634835,3523.11451 824.236784,3523.18533 824.759064,3523.34467 C828.742552,3524.32726 832.96505,3524.32726 836.948539,3523.38007 C841.533976,3522.27355 845.871553,3519.69756 848.598029,3515.78489 C850.368468,3513.35054 851.333358,3510.45587 851.935307,3507.5435 C852.253986,3505.38356 852.422178,3502.95806 851.112053,3501.08139 C850.501251,3500.17847 849.52751,3499.3198 849.722258,3498.12476 C849.801928,3497.00938 851.05894,3496.30121 852.085794,3496.66415 C853.431328,3497.0979 854.059834,3498.54081 854.334252,3499.81553 C854.856532,3502.46233 854.334252,3505.17111 853.634929,3507.73824 C853.820825,3507.71169 853.927051,3507.60546 853.971312,3507.42842 C855.175211,3503.66623 855.387664,3499.61193 854.68834,3495.73467 C853.891643,3491.18464 851.793672,3486.74969 848.297054,3483.66027 C846.199084,3481.74819 843.614242,3480.40266 840.878914,3479.65908 C838.595047,3478.97746 836.134136,3478.50829 833.779452,3479.09254 C832.619814,3479.34925 831.725743,3480.1548 830.796262,3480.83642 C830.017269,3481.43837 828.760257,3481.48263 828.052081,3480.73019 C827.414723,3480.05743 827.467836,3478.9332 828.016672,3478.21617 C828.751405,3477.25128 829.964156,3476.80867 831.114941,3476.60507 C832.947346,3476.33065 834.832864,3476.50769 836.647564,3476.87063 C837.364592,3476.99457 838.037359,3477.3221 838.772091,3477.37521 C838.621604,3477.25128 838.471116,3477.10964 838.276368,3477.04768 C833.841418,3475.61362 828.981562,3475.56051 824.493498,3476.81752 L824.493498,3476.81752 Z M829.043527,3474.37432 C833.947644,3473.97597 838.957987,3475.05593 843.269007,3477.43718 C850.61633,3481.39411 855.821421,3489.11322 856.556154,3497.44314 C857.113842,3502.57741 856.01617,3507.87103 853.51985,3512.38565 C851.023531,3516.93568 847.11086,3520.70671 842.454605,3523.00828 C838.798648,3524.84954 834.691228,3525.77902 830.592661,3525.6905 C824.989221,3525.64624 819.438894,3523.63679 815.057057,3520.15788 C811.277169,3517.16583 808.355944,3513.10267 806.762549,3508.55265 C804.266229,3501.55056 805.000962,3493.4685 808.807406,3487.06836 C811.356839,3482.64227 815.296066,3479.03057 819.899208,3476.81752 C822.758468,3475.44543 825.874441,3474.59562 829.043527,3474.37432 L829.043527,3474.37432 Z M829.043527,3473.07304 C823.732209,3473.44483 818.544822,3475.45428 814.357733,3478.75615 C810.746037,3481.58886 807.869073,3485.35104 806.098634,3489.58239 C804.18656,3494.14127 803.540349,3499.23128 804.328195,3504.1177 C805.11604,3509.5972 807.718586,3514.77574 811.560439,3518.75923 C815.18984,3522.52141 819.925765,3525.20363 825.033482,3526.33671 C829.893338,3527.43438 835.063021,3527.17767 839.781241,3525.54001 C845.092559,3523.73416 849.793076,3520.21099 853.024127,3515.6344 C856.21977,3511.16404 857.963653,3505.70224 857.999062,3500.21388 C858.043323,3494.97338 856.520745,3489.71517 853.643781,3485.32448 C851.333358,3481.73049 848.128863,3478.72074 844.437497,3476.58736 C839.807798,3473.914 834.372549,3472.67469 829.043527,3473.07304 L829.043527,3473.07304 Z" id="GE-Logo" sketch:type="MSShapeGroup"></path>
        </g>
    </g>
</svg>