<?xml version="1.0" encoding="UTF-8" standalone="no"?>
<svg width="95px" height="34px" viewBox="0 0 95 34" version="1.1" xmlns="http://www.w3.org/2000/svg" xmlns:xlink="http://www.w3.org/1999/xlink" xmlns:sketch="http://www.bohemiancoding.com/sketch/ns">
    <!-- Generator: Sketch 3.4.4 (17249) - http://www.bohemiancoding.com/sketch -->
    <title>Nike Logo</title>
    <desc>Created with Sketch.</desc>
    <defs></defs>
    <g id="Page-1" stroke="none" stroke-width="1" fill="none" fill-rule="evenodd" sketch:type="MSPage">
        <g id="Sample_01" sketch:type="MSArtboardGroup" transform="translate(-230.000000, -3483.000000)" fill="#DDDDDD">
            <path d="M242.087046,3484.50592 C235.95032,3491.7306 230.060082,3500.6807 230.000584,3507.3699 C229.975086,3509.88579 230.78255,3512.08719 232.703464,3513.75311 C235.474341,3516.15001 238.534204,3516.99147 241.568569,3516.99997 C246.005372,3517.00847 250.416675,3515.21505 253.867522,3513.82961 C259.681263,3511.50071 323.946901,3483.56246 323.946901,3483.56246 C324.567374,3483.24797 324.448379,3482.85699 323.674914,3483.05248 C323.360428,3483.12898 253.714529,3502.03214 253.714529,3502.03214 C252.371588,3502.40612 250.99465,3502.60161 249.660209,3502.61011 C244.305448,3502.64411 239.545659,3499.66924 239.579658,3493.39652 C239.596657,3490.94863 240.344624,3487.99076 242.087046,3484.50592" id="Nike-Logo" sketch:type="MSShapeGroup"></path>
        </g>
    </g>
</svg>