<?xml version="1.0" encoding="UTF-8" standalone="no"?>
<svg width="160px" height="34px" viewBox="0 0 160 34" version="1.1" xmlns="http://www.w3.org/2000/svg" xmlns:xlink="http://www.w3.org/1999/xlink" xmlns:sketch="http://www.bohemiancoding.com/sketch/ns">
    <!-- Generator: Sketch 3.4.4 (17249) - http://www.bohemiancoding.com/sketch -->
    <title>Tumblr Logo</title>
    <desc>Created with Sketch.</desc>
    <defs></defs>
    <g id="Page-1" stroke="none" stroke-width="1" fill="none" fill-rule="evenodd" sketch:type="MSPage">
        <g id="Sample_01" sketch:type="MSArtboardGroup" transform="translate(-592.000000, -3484.000000)" fill="#DDDDDD">
            <path d="M621.760784,3517.15052 C614.22073,3517.15052 612.587004,3511.46077 612.587004,3507.82017 L612.587004,3493.17092 L620.499061,3493.17092 L620.499061,3507.41331 C620.499061,3509.44418 621.041922,3511.00019 623.603654,3510.99962 C623.644226,3510.99962 623.685941,3510.99962 623.727655,3510.99848 C627.641969,3510.92419 628.205973,3507.98817 628.205973,3507.20645 L628.21683,3499.23039 C628.207687,3498.59553 627.921399,3498.30582 627.240252,3498.30582 L625.169951,3498.30525 L625.169951,3493.17092 L635.914599,3493.17092 L635.914599,3510.65676 C635.914599,3511.31277 636.297459,3511.6482 636.920892,3511.68877 C637.45461,3511.7242 638.167758,3511.77963 638.167758,3511.77963 L638.167758,3516.80252 L629.351124,3516.80252 L629.286552,3513.85736 C627.742541,3515.76994 624.771663,3517.07395 622.178501,3517.14481 C622.036786,3517.14881 621.898499,3517.15052 621.760784,3517.15052 M698.531047,3498.67268 C698.471046,3498.67268 698.410474,3498.67382 698.349902,3498.6761 C695.998457,3498.76353 694.479018,3500.20697 694.479018,3501.85213 L694.479018,3505.6573 L694.480161,3505.6573 L694.479018,3505.65901 L694.479018,3508.94932 C695.617883,3510.94819 697.319038,3511.31162 698.437903,3511.31162 C698.57619,3511.31162 698.705905,3511.30591 698.824192,3511.29734 C700.122487,3511.20134 702.838506,3510.99676 702.838506,3504.80415 C702.838506,3500.32983 700.837349,3498.67268 698.531047,3498.67268 M724.755805,3516.77795 L711.582568,3516.77795 L711.582568,3511.75563 C711.582568,3511.75563 712.778577,3511.67791 713.312295,3511.64248 C713.935728,3511.60248 714.320302,3511.24362 714.320302,3510.58762 L714.320302,3491.98463 C714.311159,3491.34977 714.026586,3491.06005 713.346581,3491.06005 L711.233995,3491.06005 L711.233995,3486.03773 C714.580876,3485.68058 719.227194,3484 719.227194,3484 L722.023786,3484 L722.016929,3510.58762 C722.016929,3511.24362 722.401503,3511.60248 723.025507,3511.64248 C723.558654,3511.67791 724.755805,3511.75563 724.755805,3511.75563 L724.755805,3516.77795 M740.099344,3516.77795 L727.18668,3516.77795 L727.18668,3511.75506 C727.18668,3511.75506 728.261545,3511.67791 728.795834,3511.64248 C729.418696,3511.60248 729.805556,3511.24362 729.805556,3510.58762 L729.805556,3499.20182 C729.796413,3498.56696 729.54384,3498.27782 728.862692,3498.27782 L726.939821,3498.28067 L726.939821,3493.14578 L736.110744,3493.14578 L736.833606,3495.31551 C738.568475,3493.66007 740.99535,3492.77835 743.198794,3492.77835 C746.034243,3492.77835 748.500546,3494.23893 748.645119,3497.39152 C748.645119,3499.37211 747.03025,3501.52413 744.156515,3501.52413 C743.018222,3501.52413 740.685633,3500.80298 740.370203,3498.3881 C737.81647,3499.00582 737.485039,3501.4207 737.485039,3502.86756 L737.487896,3510.58762 C737.487896,3511.24362 737.874185,3511.60248 738.498189,3511.64248 C739.031336,3511.67791 740.099344,3511.75506 740.099344,3511.75506 L740.099344,3516.77795 M653.597583,3516.80252 L640.668348,3516.79852 L640.668348,3511.77563 C640.668348,3511.77563 641.749498,3511.69848 642.283216,3511.66305 C642.906649,3511.62248 643.291795,3511.26362 643.291795,3510.60762 L643.291795,3509.31218 L643.291224,3499.26239 C643.282081,3498.6281 642.99465,3498.33782 642.314074,3498.33782 L640.114058,3498.30525 L640.114058,3493.16978 L649.674698,3493.16978 L649.903842,3496.24866 C651.429567,3494.18636 654.193587,3492.98235 656.785606,3492.85721 C657.013607,3492.84635 657.236466,3492.84063 657.455325,3492.84063 C660.975921,3492.84063 663.283366,3494.2435 664.759948,3496.37609 L664.906235,3496.55209 L665.146808,3496.24866 C666.672533,3494.18636 669.436553,3492.98235 672.027429,3492.85721 C672.256573,3492.84635 672.480003,3492.84063 672.700005,3492.84063 C676.226887,3492.84063 678.589761,3494.23207 680.048057,3496.08866 C681.738927,3498.24353 681.769784,3500.88355 681.769784,3503.439 C681.769784,3504.77329 681.769213,3510.60762 681.769213,3510.60762 C681.769213,3511.26362 682.147501,3511.62077 682.771506,3511.66305 C683.36751,3511.70363 684.385803,3511.77563 684.385803,3511.77563 L684.385803,3516.79852 L671.454282,3516.79852 L671.454282,3511.77677 C671.454282,3511.77677 672.534861,3511.69963 673.06915,3511.66363 C673.692012,3511.62248 674.077729,3511.26477 674.077729,3510.60819 L674.078872,3509.31218 L674.078872,3502.57785 C674.078872,3500.64983 673.398296,3498.99268 670.679991,3498.99268 C667.309109,3498.99268 666.362245,3501.62527 666.362245,3502.90871 C666.362245,3504.19272 666.351388,3510.60762 666.351388,3510.60762 L666.370817,3510.60762 C666.370817,3511.26362 666.750248,3511.62077 667.37311,3511.66305 C667.969685,3511.70363 668.98855,3511.77563 668.98855,3511.77563 L668.98855,3516.79852 L656.073029,3516.79852 L656.073029,3511.77677 C656.073029,3511.77677 657.15418,3511.69963 657.687898,3511.66363 C658.310759,3511.62248 658.695905,3511.26477 658.695905,3510.60819 C658.695905,3510.60819 658.693048,3504.50586 658.693048,3502.57785 C658.693048,3500.64983 658.135901,3498.99268 655.417024,3498.99268 C652.046715,3498.99268 650.984993,3501.62527 650.984993,3502.90871 C650.984993,3504.19272 650.974707,3510.60762 650.974707,3510.60762 C650.974707,3511.26362 651.359281,3511.62077 651.982714,3511.66305 C652.578718,3511.70363 653.597583,3511.77563 653.597583,3511.77563 L653.597583,3516.80252 M747.370253,3517.07452 C744.81252,3517.07452 742.740505,3515.04365 742.740505,3512.54192 C742.740505,3510.03847 744.81252,3508.00817 747.370253,3508.00817 C749.928557,3508.00817 752,3510.03847 752,3512.54192 C752,3515.04365 749.928557,3517.07452 747.370253,3517.07452 M700.513347,3517.10424 C696.590461,3517.10424 694.174444,3514.83851 693.997871,3514.74022 L693.093865,3516.77452 L686.763534,3516.78138 L686.763534,3491.98806 C686.754963,3491.35262 686.462389,3491.06291 685.782384,3491.06291 L683.56694,3491.06005 L683.681226,3486.03773 C687.185251,3485.60801 691.710998,3484 691.710998,3484 L694.479018,3484 L694.479018,3494.96808 C695.977314,3493.66578 698.040186,3492.91778 699.995057,3492.83206 C700.218487,3492.82235 700.436775,3492.81778 700.651062,3492.81778 C709.56084,3492.81778 710.638562,3501.11384 710.638562,3504.70701 C710.638562,3511.72077 707.572254,3516.34366 701.733355,3517.03224 C701.312209,3517.08195 700.905349,3517.10424 700.513347,3517.10424 M604.922949,3517.14424 C597.974328,3517.14424 595.786313,3512.11906 595.786313,3508.56989 L595.786313,3498.63839 L592,3498.63839 L592,3493.93436 C596.97375,3492.17949 598.170901,3487.78631 598.452618,3485.28344 C598.472046,3485.11144 598.609761,3485.04344 598.688619,3485.04344 L603.493225,3485.04344 L603.493225,3493.17035 L609.586983,3493.17035 L609.586983,3498.63839 L603.468653,3498.63839 L603.468653,3508.07274 C603.490368,3509.40932 603.980657,3511.24019 606.486389,3511.24019 C606.531532,3511.24019 606.577818,3511.23962 606.624104,3511.23848 C607.495539,3511.21619 608.661262,3510.96819 609.271552,3510.68476 L610.849277,3515.26194 C610.256702,3516.11394 607.578968,3517.10195 605.168665,3517.14195 C605.085808,3517.14367 605.004664,3517.14424 604.922949,3517.14424" id="Tumblr-Logo" sketch:type="MSShapeGroup"></path>
        </g>
    </g>
</svg>