<?xml version="1.0" encoding="UTF-8" standalone="no"?>
<svg width="163px" height="34px" viewBox="0 0 163 34" version="1.1" xmlns="http://www.w3.org/2000/svg" xmlns:xlink="http://www.w3.org/1999/xlink" xmlns:sketch="http://www.bohemiancoding.com/sketch/ns">
    <!-- Generator: Sketch 3.4.4 (17249) - http://www.bohemiancoding.com/sketch -->
    <title>Wired Logo</title>
    <desc>Created with Sketch.</desc>
    <defs></defs>
    <g id="Page-1" stroke="none" stroke-width="1" fill="none" fill-rule="evenodd" sketch:type="MSPage">
        <g id="Sample_01" sketch:type="MSArtboardGroup" transform="translate(-377.000000, -3483.000000)" fill="#DDDDDD">
            <path d="M529.8125,3502.67566 C529.8125,3502.67566 529.713022,3507.07067 526.316989,3507.07067 L519.22589,3507.07067 L519.22589,3492.08905 L526.017357,3492.08905 C526.017357,3492.08905 529.8125,3491.78882 529.8125,3496.88317 L529.8125,3502.67566 L529.8125,3502.67566 Z M507.340074,3483 L540,3483 L540,3516.25919 L507.340074,3516.25919 L507.340074,3483 Z M534.306985,3502.57618 L534.306985,3496.2839 C534.306985,3487.29493 524.31964,3488.39338 524.31964,3488.39338 L514.631327,3488.39338 L514.631327,3511.06536 C514.631327,3511.06536 518.326993,3510.96589 526.516544,3510.96589 C534.706096,3510.96589 534.306985,3502.57618 534.306985,3502.57618 Z M460.397871,3498.28125 C457.601103,3498.28125 454.205669,3498.38133 454.205669,3498.38133 L454.205669,3492.18853 L460.497949,3492.18853 C460.497949,3492.18853 463.893382,3491.68934 463.893382,3494.88522 C463.893382,3497.68199 463.19464,3498.28125 460.397871,3498.28125 Z M442.319853,3483 L474.979779,3483 L474.979779,3516.25919 L442.319853,3516.25919 L442.319853,3483 Z M464.992434,3500.47875 C464.992434,3500.47875 468.387868,3500.17912 468.387868,3494.0864 C468.387868,3487.99367 462.79493,3488.29331 462.79493,3488.29331 L449.810662,3488.29331 L449.810662,3510.66625 L454.205669,3510.66625 L454.205669,3501.97692 C454.205669,3501.97692 458.700154,3501.87684 461.296768,3501.87684 C463.893382,3501.87684 463.893382,3505.67198 463.893382,3505.67198 L463.893382,3510.56618 L468.387868,3510.56618 L468.387868,3505.37235 C468.387868,3500.67771 464.992434,3500.47875 464.992434,3500.47875 Z M377,3483 L409.659926,3483 L409.659926,3516.25919 L377,3516.25919 L377,3483 Z M379.796768,3488.39338 L384.291254,3488.39338 L387.387654,3505.47243 L391.382353,3488.39338 L396.276548,3488.49346 L400.271846,3505.77206 L403.268169,3488.39338 L407.5625,3488.39338 L402.968537,3510.76573 L397.375,3510.76573 L393.779412,3494.48611 L389.884191,3510.86581 L384.391331,3510.86581 L379.796768,3488.39338 Z M434.280118,3492.03871 L434.280118,3488.24357 L418.499081,3488.24357 L418.499081,3492.03871 L423.99254,3492.03871 L423.99254,3507.02093 L418.499081,3507.02093 L418.499081,3510.81607 L434.280118,3510.81607 L434.280118,3507.02093 L428.287471,3507.02093 L428.287471,3492.03871 L434.280118,3492.03871 Z M480.972426,3488.29331 L480.972426,3491.98897 L484.068827,3491.98897 L484.068827,3507.07067 L480.972426,3507.07067 L480.972426,3510.76573 L500.049419,3510.76573 L500.049419,3503.47508 L496.253676,3503.47508 L496.253676,3507.07067 L488.163603,3507.07067 L488.163603,3500.97794 L494.15625,3500.97794 L494.15625,3497.28228 L488.163603,3497.28228 L488.163603,3491.98897 L495.954044,3491.98897 L495.954044,3495.58456 L500.049419,3495.58456 L500.049419,3488.29331 L480.972426,3488.29331 Z" id="Wired-Logo" sketch:type="MSShapeGroup"></path>
        </g>
    </g>
</svg>